<svg width="64" height="64" viewBox="0 0 64 64" fill="none" xmlns="http://www.w3.org/2000/svg">
<path d="M28.0935 29.1846C25.7989 31.2696 22.948 32.6431 19.8873 33.1379C16.8267 33.6328 13.6882 33.2278 10.8535 31.9722C8.01878 30.7165 5.60992 28.6643 3.91982 26.0651C2.22972 23.4659 1.33118 20.4317 1.33346 17.3313C1.31028 14.2779 2.17009 11.2829 3.80941 8.70688C5.44873 6.13081 7.79767 4.08346 10.5735 2.81128C26.4135 -4.49539 41.7468 15.5313 28.0935 29.1846Z" fill="#FFCC66"/>
<path d="M28.0936 29.1846C12.2536 36.4913 -3.07977 16.4646 10.5736 2.81128C26.4136 -4.49539 41.7469 15.5313 28.0936 29.1846Z" fill="#FFDE76"/>
<path d="M57.4267 58.517C55.1321 60.602 52.2812 61.9754 49.2206 62.4703C46.16 62.9652 43.0215 62.5602 40.1868 61.3045C37.352 60.0489 34.9432 57.9967 33.2531 55.3975C31.563 52.7983 30.6644 49.764 30.6667 46.6637C30.6435 43.6103 31.5033 40.6153 33.1427 38.0393C34.782 35.4632 37.1309 33.4159 39.9067 32.1437C55.72 24.8503 71.0934 44.8503 57.4267 58.517Z" fill="#FFCC66"/>
<path d="M57.4268 58.517C41.5868 65.8237 26.2535 45.797 39.9068 32.1437C55.7201 24.8503 71.0935 44.8503 57.4268 58.517Z" fill="#FFDE76"/>
<path d="M18.6667 15.9987V10.6654H22.6667C23.0204 10.6654 23.3595 10.5249 23.6096 10.2748C23.8596 10.0248 24.0001 9.68565 24.0001 9.33203C24.0001 8.97841 23.8596 8.63927 23.6096 8.38922C23.3595 8.13917 23.0204 7.9987 22.6667 7.9987H18.6667V6.66536C18.6667 6.31174 18.5263 5.9726 18.2762 5.72256C18.0262 5.47251 17.687 5.33203 17.3334 5.33203C16.9798 5.33203 16.6407 5.47251 16.3906 5.72256C16.1406 5.9726 16.0001 6.31174 16.0001 6.66536V7.9987C14.5856 7.9987 13.229 8.5606 12.2288 9.56079C11.2287 10.561 10.6667 11.9175 10.6667 13.332C10.6667 14.7465 11.2287 16.1031 12.2288 17.1033C13.229 18.1035 14.5856 18.6654 16.0001 18.6654V23.9987H12.0001C11.6465 23.9987 11.3073 24.1392 11.0573 24.3892C10.8072 24.6393 10.6667 24.9784 10.6667 25.332C10.6667 25.6857 10.8072 26.0248 11.0573 26.2748C11.3073 26.5249 11.6465 26.6654 12.0001 26.6654H16.0001V27.9987C16.0001 28.3523 16.1406 28.6915 16.3906 28.9415C16.6407 29.1916 16.9798 29.332 17.3334 29.332C17.687 29.332 18.0262 29.1916 18.2762 28.9415C18.5263 28.6915 18.6667 28.3523 18.6667 27.9987V26.6654C20.0812 26.6654 21.4378 26.1035 22.438 25.1033C23.4382 24.1031 24.0001 22.7465 24.0001 21.332C24.0001 19.9175 23.4382 18.561 22.438 17.5608C21.4378 16.5606 20.0812 15.9987 18.6667 15.9987ZM13.3334 13.332C13.3334 12.6248 13.6144 11.9465 14.1145 11.4464C14.6146 10.9463 15.2928 10.6654 16.0001 10.6654V15.9987C15.2928 15.9987 14.6146 15.7177 14.1145 15.2176C13.6144 14.7176 13.3334 14.0393 13.3334 13.332ZM18.6667 23.9987V18.6654C19.374 18.6654 20.0523 18.9463 20.5524 19.4464C21.0525 19.9465 21.3334 20.6248 21.3334 21.332C21.3334 22.0393 21.0525 22.7176 20.5524 23.2176C20.0523 23.7177 19.374 23.9987 18.6667 23.9987Z" fill="#FFBA55"/>
<path d="M55.0533 23.052C54.5199 23.5854 54.6666 24.9187 54.6666 15.9987C54.6666 15.1232 54.4941 14.2563 54.1591 13.4475C53.8241 12.6386 53.333 11.9037 52.714 11.2847C52.0949 10.6656 51.36 10.1745 50.5511 9.8395C49.7423 9.50447 48.8754 9.33203 47.9999 9.33203H38.6666C38.313 9.33203 37.9738 9.47251 37.7238 9.72256C37.4737 9.9726 37.3333 10.3117 37.3333 10.6654C37.3333 11.019 37.4737 11.3581 37.7238 11.6082C37.9738 11.8582 38.313 11.9987 38.6666 11.9987H47.9999C49.0608 11.9987 50.0782 12.4201 50.8283 13.1703C51.5785 13.9204 51.9999 14.9378 51.9999 15.9987C51.9999 24.572 52.1733 23.612 51.6132 23.052C51.4889 22.9277 51.3413 22.8291 51.1789 22.7618C51.0165 22.6945 50.8424 22.6599 50.6666 22.6599C50.4908 22.6599 50.3167 22.6945 50.1543 22.7618C49.9918 22.8291 49.8442 22.9277 49.7199 23.052C49.5956 23.1764 49.497 23.3239 49.4297 23.4864C49.3624 23.6488 49.3278 23.8229 49.3278 23.9987C49.3278 24.1745 49.3624 24.3486 49.4297 24.511C49.497 24.6735 49.5956 24.821 49.7199 24.9454L52.3866 27.612C52.5105 27.737 52.658 27.8362 52.8205 27.9039C52.983 27.9716 53.1572 28.0064 53.3333 28.0064C53.5093 28.0064 53.6835 27.9716 53.846 27.9039C54.0085 27.8362 54.156 27.737 54.2799 27.612L56.9466 24.9454C57.1977 24.6943 57.3387 24.3538 57.3387 23.9987C57.3387 23.6436 57.1977 23.3031 56.9466 23.052C56.6955 22.801 56.355 22.6599 55.9999 22.6599C55.6448 22.6599 55.3043 22.801 55.0533 23.052Z" fill="#7C7D7D"/>
<path d="M25.3335 51.998H16.0002C14.9393 51.998 13.9219 51.5765 13.1717 50.8264C12.4216 50.0762 12.0002 49.0588 12.0002 47.998C12.0002 39.4246 11.8268 40.3846 12.3868 40.9446C12.5112 41.0689 12.6587 41.1676 12.8212 41.2348C12.9836 41.3021 13.1577 41.3368 13.3335 41.3368C13.5093 41.3368 13.6834 41.3021 13.8458 41.2348C14.0083 41.1676 14.1558 41.0689 14.2802 40.9446C14.4045 40.8203 14.5031 40.6727 14.5704 40.5103C14.6377 40.3479 14.6723 40.1738 14.6723 39.998C14.6723 39.8222 14.6377 39.6481 14.5704 39.4856C14.5031 39.3232 14.4045 39.1756 14.2802 39.0513L11.6135 36.3846C11.4895 36.2597 11.3421 36.1605 11.1796 36.0928C11.0171 36.0251 10.8428 35.9902 10.6668 35.9902C10.4908 35.9902 10.3165 36.0251 10.1541 36.0928C9.99158 36.1605 9.84412 36.2597 9.72017 36.3846L7.0535 39.0513C6.80243 39.3024 6.66138 39.6429 6.66138 39.998C6.66138 40.353 6.80243 40.6936 7.0535 40.9446C7.30457 41.1957 7.6451 41.3368 8.00017 41.3368C8.35523 41.3368 8.69576 41.1957 8.94683 40.9446C9.48017 40.4113 9.3335 39.078 9.3335 47.998C9.3335 48.8734 9.50594 49.7404 9.84097 50.5492C10.176 51.358 10.6671 52.093 11.2861 52.712C11.9052 53.3311 12.6401 53.8221 13.4489 54.1572C14.2578 54.4922 15.1247 54.6646 16.0002 54.6646H25.3335C25.6871 54.6646 26.0263 54.5242 26.2763 54.2741C26.5264 54.0241 26.6668 53.6849 26.6668 53.3313C26.6668 52.9777 26.5264 52.6385 26.2763 52.3885C26.0263 52.1384 25.6871 51.998 25.3335 51.998Z" fill="#7C7D7D"/>
<path d="M50.6667 54.6647C49.2638 54.6633 47.8859 54.2929 46.6713 53.5909C45.4567 52.8888 44.4481 51.8797 43.7467 50.6647H46.6667C47.0203 50.6647 47.3594 50.5242 47.6095 50.2742C47.8595 50.0241 48 49.685 48 49.3314C48 48.9778 47.8595 48.6386 47.6095 48.3886C47.3594 48.1385 47.0203 47.998 46.6667 47.998H42.7867C42.6267 47.1164 42.6267 46.2131 42.7867 45.3314H46.6667C47.0203 45.3314 47.3594 45.1909 47.6095 44.9409C47.8595 44.6908 48 44.3517 48 43.998C48 43.6444 47.8595 43.3053 47.6095 43.0552C47.3594 42.8052 47.0203 42.6647 46.6667 42.6647H43.7467C44.4481 41.4498 45.4567 40.4406 46.6713 39.7386C47.8859 39.0365 49.2638 38.6662 50.6667 38.6647C51.0203 38.6647 51.3594 38.5242 51.6095 38.2742C51.8595 38.0241 52 37.685 52 37.3314C52 36.9778 51.8595 36.6386 51.6095 36.3886C51.3594 36.1385 51.0203 35.998 50.6667 35.998C48.5433 35.9997 46.4688 36.635 44.7087 37.8227C42.9485 39.0104 41.5829 40.6963 40.7867 42.6647H37.3333C36.9797 42.6647 36.6406 42.8052 36.3905 43.0552C36.1405 43.3053 36 43.6444 36 43.998C36 44.3517 36.1405 44.6908 36.3905 44.9409C36.6406 45.1909 36.9797 45.3314 37.3333 45.3314H40.0933C39.9733 46.2162 39.9733 47.1132 40.0933 47.998H37.3333C36.9797 47.998 36.6406 48.1385 36.3905 48.3886C36.1405 48.6386 36 48.9778 36 49.3314C36 49.685 36.1405 50.0241 36.3905 50.2742C36.6406 50.5242 36.9797 50.6647 37.3333 50.6647H40.7867C41.5829 52.6331 42.9485 54.3191 44.7087 55.5067C46.4688 56.6944 48.5433 57.3297 50.6667 57.3314C51.0203 57.3314 51.3594 57.1909 51.6095 56.9409C51.8595 56.6908 52 56.3517 52 55.998C52 55.6444 51.8595 55.3053 51.6095 55.0552C51.3594 54.8052 51.0203 54.6647 50.6667 54.6647Z" fill="#FFBA55"/>
</svg>
