<svg width="64" height="64" viewBox="0 0 64 64" fill="none" xmlns="http://www.w3.org/2000/svg">
<g clip-path="url(#clip0_4019_682)">
<path d="M61 29L63 32L61 35L54.74 35.43C54.1933 39.1331 52.7403 42.6438 50.51 45.65L54.63 50.38L53.92 53.92L50.38 54.63L45.65 50.51C42.6438 52.7403 39.1331 54.1933 35.43 54.74L35 61L32 63L29 61L28.57 54.74C24.8669 54.1933 21.3562 52.7403 18.35 50.51L13.62 54.63L10.08 53.92L9.37 50.38L13.49 45.65C11.2597 42.6438 9.80665 39.1331 9.26 35.43L3 35L1 32L3 29L9.26 28.57C9.80665 24.8669 11.2597 21.3562 13.49 18.35L9.37 13.62L10.08 10.08L13.62 9.37L18.35 13.49C21.3562 11.2597 24.8669 9.80665 28.57 9.26L29 3L32 1L35 3L35.43 9.26C39.1331 9.80665 42.6438 11.2597 45.65 13.49L50.38 9.37L53.92 10.08L54.63 13.62L50.51 18.35C52.7403 21.3562 54.1933 24.8669 54.74 28.57L61 29Z" fill="#BEC3D2"/>
<path d="M27.3941 10C26.5231 10 25.7621 10.029 25.0681 10.075C22.6545 10.8319 20.384 11.986 18.3501 13.49L16.3381 11.738C14.9667 11.9231 13.5839 12.0107 12.2001 12C11.2611 12 10.4531 11.966 9.71812 11.912L9.37012 13.62L13.4901 18.35C11.806 20.6226 10.5607 23.1896 9.81812 25.919C10.5281 25.968 11.2991 26 12.1951 26C19.7951 26 19.7951 24 27.3951 24C34.9951 24 34.9951 26 42.5951 26C48.4861 26 49.8231 24.8 53.6601 24.261C52.9078 22.1459 51.8462 20.154 50.5101 18.35L54.6301 13.62L53.9481 10.22C51.4531 10.539 50.0081 11.134 47.8761 11.549L45.6501 13.49C44.9141 12.9446 44.146 12.4437 43.3501 11.99C43.1021 11.995 42.8661 12.003 42.6001 12.003C34.9951 12 34.9951 10 27.3941 10Z" fill="#F6FAFD"/>
<path d="M16.3379 11.7371L13.6199 9.36914L10.0799 10.0791L9.71289 11.9111C10.4479 11.9651 11.2559 11.9991 12.1949 11.9991C13.5804 12.01 14.9648 11.9225 16.3379 11.7371Z" fill="#9196AA"/>
<path d="M35.4303 9.26L35.3433 8L35.0003 3L32.0003 1L29.0003 3L28.6573 8L28.5703 9.26C27.384 9.4393 26.2138 9.71181 25.0703 10.075C25.7643 10.029 26.5253 10 27.3963 10C34.9963 10 34.9963 12 42.5963 12C42.8623 12 43.0963 11.992 43.3463 11.987C40.8993 10.5957 38.2151 9.67101 35.4303 9.26Z" fill="#9196AA"/>
<path d="M53.9199 10.0791L50.3799 9.36914L47.8799 11.5501C50.0119 11.1351 51.4569 10.5401 53.9519 10.2211L53.9199 10.0791Z" fill="#9196AA"/>
<path d="M32 50C41.9411 50 50 41.9411 50 32C50 22.0589 41.9411 14 32 14C22.0589 14 14 22.0589 14 32C14 41.9411 22.0589 50 32 50Z" fill="#FFCF94"/>
<path d="M32 47C40.2843 47 47 40.2843 47 32C47 23.7157 40.2843 17 32 17C23.7157 17 17 23.7157 17 32C17 40.2843 23.7157 47 32 47Z" fill="#FFA426"/>
<path d="M44.994 24.5277C43.2168 24.8682 41.4094 25.0263 39.6 24.9997C32 24.9997 32 22.9997 24.4 22.9997C22.8528 22.983 21.3069 23.0941 19.778 23.3317C17.9821 25.8459 17.0113 28.8559 17 31.9457C19.4048 31.2688 21.8962 30.95 24.394 30.9997C31.994 30.9997 31.994 32.9997 39.594 32.9997C42.0939 33.0491 44.5873 32.7296 46.994 32.0517C46.994 32.0337 46.994 32.0167 46.994 31.9997C46.9962 29.3764 46.3063 26.7991 44.994 24.5277Z" fill="#FFC247"/>
<path d="M29 31H27V33H29V31Z" fill="white"/>
<path d="M37 31H35V33H37V31Z" fill="white"/>
<path d="M63.8321 31.4452L61.8321 28.4452C61.7474 28.3174 61.6345 28.2108 61.502 28.1336C61.3695 28.0565 61.2211 28.0108 61.0681 28.0002L55.6001 27.6252C54.9859 24.3192 53.6841 21.1791 51.7791 18.4082L55.3792 14.2722C55.4796 14.1567 55.5521 14.0198 55.5913 13.8719C55.6305 13.724 55.6352 13.5691 55.6051 13.4192L54.9002 9.88315C54.8614 9.68971 54.7663 9.51205 54.6268 9.37255C54.4872 9.23304 54.3096 9.13792 54.1161 9.09915L50.5812 8.39215C50.4311 8.3622 50.2761 8.36709 50.1282 8.40644C49.9804 8.4458 49.8435 8.51857 49.7281 8.61915L45.5931 12.2192C42.8217 10.315 39.6812 9.01393 36.3751 8.40015L36.0001 2.93115C35.9896 2.77856 35.9441 2.63043 35.8673 2.49815C35.7905 2.36588 35.6844 2.25298 35.5571 2.16815L32.5571 0.16815C32.3928 0.0585107 32.1997 0 32.0021 0C31.8046 0 31.6115 0.0585107 31.4471 0.16815L28.4471 2.16815C28.3191 2.25255 28.2122 2.36525 28.1347 2.49756C28.0572 2.62986 28.0112 2.77821 28.0001 2.93115L27.6251 8.40015C24.3191 9.01435 21.179 10.3161 18.4081 12.2212L14.2722 8.62115C14.1568 8.52057 14.0199 8.4478 13.8721 8.40844C13.7242 8.36909 13.5692 8.3642 13.4191 8.39415L9.88315 9.10015C9.68971 9.13892 9.51205 9.23404 9.37255 9.37355C9.23304 9.51305 9.13792 9.69071 9.09915 9.88415L8.39215 13.4202C8.3622 13.5702 8.36709 13.7252 8.40644 13.8731C8.4458 14.0209 8.51857 14.1578 8.61915 14.2732L12.2191 18.4092C10.315 21.1799 9.01388 24.3197 8.40015 27.6252L2.93115 28.0002C2.77856 28.0107 2.63043 28.0562 2.49815 28.133C2.36588 28.2098 2.25298 28.3159 2.16815 28.4432L0.16815 31.4432C0.0585107 31.6075 0 31.8006 0 31.9982C0 32.1957 0.0585107 32.3888 0.16815 32.5532L2.16815 35.5532C2.25255 35.6812 2.36525 35.7881 2.49756 35.8656C2.62986 35.9431 2.77821 35.9891 2.93115 36.0002L8.40015 36.3772C9.01435 39.6832 10.3161 42.8233 12.2211 45.5942L8.62115 49.7302C8.52057 49.8455 8.4478 49.9824 8.40844 50.1303C8.36909 50.2781 8.3642 50.4331 8.39415 50.5832L9.10015 54.1172C9.13892 54.3106 9.23404 54.4883 9.37355 54.6278C9.51305 54.7673 9.69071 54.8624 9.88415 54.9012L13.4201 55.6082C13.5702 55.6386 13.7253 55.6339 13.8732 55.5945C14.0212 55.5552 14.1581 55.4821 14.2731 55.3812L18.4091 51.7812C21.1799 53.6853 24.3197 54.9864 27.6251 55.6002L28.0001 61.0692C28.0107 61.2217 28.0562 61.3699 28.133 61.5022C28.2098 61.6344 28.3159 61.7473 28.4431 61.8322L31.4431 63.8322C31.6075 63.9418 31.8006 64.0003 31.9981 64.0003C32.1957 64.0003 32.3888 63.9418 32.5532 63.8322L35.5532 61.8322C35.6812 61.7478 35.7881 61.6351 35.8656 61.5028C35.9431 61.3704 35.9891 61.2221 36.0001 61.0692L36.3771 55.6002C39.6834 54.9858 42.8238 53.684 45.5951 51.7792L49.7301 55.3792C49.8455 55.4797 49.9824 55.5525 50.1302 55.5919C50.2781 55.6312 50.4331 55.6361 50.5831 55.6062L54.1181 54.8992C54.3116 54.8604 54.4892 54.7653 54.6288 54.6258C54.7683 54.4863 54.8634 54.3086 54.9021 54.1152L55.6091 50.5792C55.6392 50.4292 55.6345 50.2743 55.5953 50.1264C55.5561 49.9785 55.4836 49.8416 55.3831 49.7262L51.7831 45.5902C53.6864 42.8195 54.9868 39.6801 55.6001 36.3752L61.0681 36.0002C61.2209 35.9897 61.3692 35.9444 61.5017 35.8676C61.6342 35.7908 61.7472 35.6846 61.8321 35.5572L63.8321 32.5572C63.9422 32.3926 64.001 32.1991 64.001 32.0012C64.001 31.8032 63.9422 31.6097 63.8321 31.4452ZM60.4401 34.0362L54.6761 34.4362C54.4487 34.4517 54.2335 34.5444 54.066 34.699C53.8985 34.8536 53.7888 35.0607 53.7551 35.2862C53.2188 38.8255 51.8269 42.1806 49.7001 45.0602C49.5648 45.2432 49.4961 45.467 49.5051 45.6944C49.5142 45.9219 49.6007 46.1395 49.7501 46.3112L53.5501 50.6712L53.0701 53.0712L50.6701 53.5502L46.3111 49.7502C46.1394 49.6004 45.9216 49.5138 45.694 49.5048C45.4663 49.4957 45.2423 49.5646 45.0591 49.7002C42.1789 51.8271 38.8226 53.2181 35.2822 53.7522C35.0571 53.786 34.8502 53.8956 34.6959 54.0629C34.5415 54.2301 34.4488 54.4451 34.4331 54.6722L34.0331 60.4382L32.0001 61.8002L29.9641 60.4432L29.5641 54.6772C29.5484 54.4499 29.4556 54.2349 29.301 54.0676C29.1465 53.9003 28.9394 53.7908 28.7141 53.7572C25.1744 53.221 21.8191 51.8283 18.9401 49.7002C18.7571 49.5649 18.5333 49.4961 18.3059 49.5052C18.0784 49.5142 17.8608 49.6007 17.6891 49.7502L13.3292 53.5502L10.9291 53.0702L10.4492 50.6702L14.2491 46.3102C14.3986 46.1385 14.4851 45.9209 14.4942 45.6934C14.5032 45.466 14.4345 45.2422 14.2991 45.0592C12.1725 42.1791 10.7815 38.8232 10.2471 35.2832C10.2135 35.0579 10.104 34.8508 9.93672 34.6963C9.76942 34.5417 9.55437 34.4489 9.32715 34.4332L3.56115 34.0332L2.20015 32.0002L3.55715 29.9642L9.32315 29.5642C9.55037 29.5484 9.76542 29.4556 9.93272 29.301C10.1 29.1465 10.2095 28.9394 10.2431 28.7142C10.7793 25.1744 12.172 21.8191 14.3001 18.9402C14.4355 18.7571 14.5042 18.5333 14.4952 18.3059C14.4861 18.0784 14.3996 17.8608 14.2501 17.6891L10.4501 13.3292L10.9302 10.9292L13.3301 10.4492L17.6901 14.2492C17.8618 14.3986 18.0794 14.4851 18.3069 14.4942C18.5343 14.5032 18.7581 14.4345 18.9411 14.2992C21.8212 12.1725 25.1771 10.7815 28.7171 10.2472C28.9424 10.2135 29.1495 10.104 29.304 9.93672C29.4586 9.76942 29.5514 9.55437 29.5671 9.32715L29.9671 3.56115L32.0001 2.20015L34.0361 3.55715L34.4361 9.32315C34.4518 9.55023 34.5445 9.76516 34.6989 9.93244C34.8532 10.0997 35.0601 10.2093 35.2851 10.2432C38.8253 10.779 42.181 12.1717 45.0602 14.3002C45.2433 14.4357 45.4673 14.5046 45.695 14.4956C45.9226 14.4865 46.1404 14.3999 46.3121 14.2502L50.6712 10.4502L53.0711 10.9292L53.5511 13.3292L49.7511 17.6891C49.6017 17.8608 49.5152 18.0784 49.5061 18.3059C49.4971 18.5333 49.5658 18.7571 49.7011 18.9402C51.8271 21.8206 53.218 25.1763 53.7531 28.7162C53.7868 28.9416 53.8965 29.1488 54.064 29.3033C54.2315 29.4579 54.4467 29.5506 54.6741 29.5662L60.4381 29.9662L61.8001 32.0002L60.4401 34.0362Z" fill="black"/>
<path d="M32 13C28.2422 13 24.5687 14.1143 21.4442 16.2021C18.3196 18.2898 15.8844 21.2572 14.4463 24.729C13.0082 28.2008 12.632 32.0211 13.3651 35.7067C14.0982 39.3924 15.9078 42.7778 18.565 45.435C21.2222 48.0922 24.6077 49.9018 28.2933 50.6349C31.9789 51.368 35.7992 50.9918 39.271 49.5537C42.7428 48.1156 45.7102 45.6804 47.7979 42.5558C49.8857 39.4313 51 35.7578 51 32C50.9945 26.9626 48.9909 22.1331 45.4289 18.5711C41.8669 15.0091 37.0374 13.0056 32 13ZM32 49C28.6377 49 25.351 48.003 22.5553 46.135C19.7597 44.267 17.5807 41.612 16.2941 38.5056C15.0074 35.3993 14.6707 31.9811 15.3267 28.6835C15.9826 25.3858 17.6017 22.3567 19.9792 19.9792C22.3567 17.6017 25.3858 15.9826 28.6835 15.3267C31.9812 14.6707 35.3993 15.0074 38.5056 16.294C41.612 17.5807 44.267 19.7597 46.135 22.5553C48.003 25.3509 49 28.6377 49 32C48.995 36.5071 47.2023 40.8282 44.0153 44.0153C40.8282 47.2023 36.5071 48.995 32 49Z" fill="black"/>
<path d="M43 30C42.8668 30.0138 42.7323 29.9944 42.6085 29.9437C42.4846 29.8929 42.3752 29.8123 42.29 29.709C41.68 28.967 41.818 27.021 41.98 26.195C42.0088 26.05 42.0052 25.9005 41.9693 25.7571C41.9334 25.6138 41.8661 25.4802 41.7724 25.3659C41.6787 25.2516 41.5608 25.1595 41.4273 25.0963C41.2937 25.033 41.1478 25.0001 41 25H39V27H39.865C39.6729 28.3879 39.984 29.7986 40.742 30.977C41.0696 31.3808 41.5062 31.6821 42 31.845V32.155C41.5062 32.3179 41.0696 32.6192 40.742 33.023C39.984 34.2014 39.6729 35.6121 39.865 37H39V39H41C41.1483 39 41.2948 38.9671 41.4288 38.9035C41.5627 38.84 41.6809 38.7474 41.7747 38.6325C41.8685 38.5177 41.9356 38.3834 41.9711 38.2394C42.0066 38.0954 42.0097 37.9453 41.98 37.8C41.818 36.974 41.68 35.028 42.29 34.286C42.3757 34.1836 42.4853 34.104 42.6092 34.0541C42.733 34.0042 42.8673 33.9856 43 34C43.2652 34 43.5196 33.8946 43.7071 33.7071C43.8946 33.5196 44 33.2652 44 33V31C44 30.7348 43.8946 30.4804 43.7071 30.2929C43.5196 30.1054 43.2652 30 43 30Z" fill="black"/>
<path d="M33 31H31V33H33V31Z" fill="black"/>
<path d="M22.228 25.366C22.1341 25.4801 22.0666 25.6137 22.0304 25.757C21.9943 25.9004 21.9904 26.05 22.019 26.195C22.182 27.021 22.319 28.967 21.71 29.709C21.6249 29.8124 21.5155 29.8931 21.3916 29.9439C21.2677 29.9947 21.1332 30.014 21 30C20.7348 30 20.4804 30.1054 20.2929 30.2929C20.1054 30.4804 20 30.7348 20 31V33C20 33.2652 20.1054 33.5196 20.2929 33.7071C20.4804 33.8946 20.7348 34 21 34C21.1332 33.986 21.2677 34.0053 21.3916 34.0561C21.5155 34.1069 21.6249 34.1876 21.71 34.291C22.321 35.033 22.182 36.979 22.019 37.805C21.9902 37.95 21.9939 38.0997 22.0298 38.2431C22.0657 38.3865 22.1331 38.5202 22.2269 38.6345C22.3207 38.7488 22.4387 38.8409 22.5724 38.9041C22.7061 38.9673 22.8521 39 23 39H25V37H24.135C24.3265 35.6122 24.0155 34.2016 23.258 33.023C22.9304 32.6192 22.4938 32.3179 22 32.155V31.845C22.4938 31.6821 22.9304 31.3808 23.258 30.977C24.0155 29.7984 24.3265 28.3878 24.135 27H25V25H23C22.8523 25.0002 22.7064 25.0331 22.5729 25.0964C22.4395 25.1597 22.3217 25.2518 22.228 25.366Z" fill="black"/>
</g>
<defs>
<clipPath id="clip0_4019_682">
<rect width="64" height="64" fill="white"/>
</clipPath>
</defs>
</svg>
