<svg width="64" height="64" viewBox="0 0 64 64" fill="none" xmlns="http://www.w3.org/2000/svg">
<path d="M31.3 10.877H19.6125V24.752H31.3V10.877ZM21.425 22.9395V12.6895L30.1625 17.8145L21.425 22.9395Z" fill="#FBC749"/>
<path d="M37.5002 32.3902H39.5877L38.5502 30.3027L37.5002 32.3902Z" fill="white"/>
<path d="M35.6629 33.1016C35.6629 32.9891 35.6879 32.8891 35.7379 32.7891L37.8504 28.5766V27.6516H39.2504V28.5766L41.3629 32.7891C41.4129 32.8891 41.4379 32.9891 41.4379 33.1016V40.0266H44.4004V26.1641H32.7129V40.0266H35.6754V33.1016H35.6629Z" fill="#FBC749"/>
<path d="M22.8379 15.1504V20.4879L27.3879 17.8129L22.8379 15.1504Z" fill="#E85558"/>
<path d="M44.3877 10.877H32.7002V24.752H44.3877V10.877ZM43.0377 23.4145L36.8127 20.7145H34.0627V14.927H36.8002L43.0377 11.952V23.4145Z" fill="#75B4E2"/>
<path d="M41.6251 14.1777L37.6626 16.0777V19.5402L41.6251 21.2652V14.1777Z" fill="white"/>
<path d="M36.2501 16.3379H35.4751V19.3004H36.2501V16.3379Z" fill="white"/>
<path d="M40.0252 40.0277V33.8027H37.0752V40.0277H37.8377V35.2777H39.2502V40.0277H40.0252Z" fill="#E85558"/>
<path d="M40.0251 52.3516H23.9751V53.1266H40.0251V52.3516Z" fill="#75B4E2"/>
<path d="M31.3 26.1641H19.6125V40.0266H31.3V26.1641ZM30.525 36.1766H28.3375V39.3516L25.1625 36.1766H20.3876V28.2266H30.525V36.1766Z" fill="#75B4E2"/>
<path d="M18.2002 26.1527V15.2402H10.1752C9.3627 15.2402 8.7002 15.9027 8.7002 16.7152V40.0152H18.2002V26.1527Z" fill="white"/>
<path d="M33.4879 47.9766H30.5254V50.9391H33.4879V47.9766Z" fill="#75B4E2"/>
<path d="M18.2002 41.4277H8.7002V45.0902C8.7002 45.9027 9.3627 46.5652 10.1752 46.5652H53.8252C54.6377 46.5652 55.3002 45.9027 55.3002 45.0902V41.4277H45.8002H18.2002ZM32.0002 45.0902C31.4002 45.0902 30.9127 44.6027 30.9127 44.0027C30.9127 43.4027 31.4002 42.9152 32.0002 42.9152C32.6002 42.9152 33.0877 43.4027 33.0877 44.0027C33.0877 44.6027 32.6002 45.0902 32.0002 45.0902Z" fill="#75B4E2"/>
<path d="M53.8251 15.2402H45.8V40.0277H55.3V16.7152C55.3 15.9027 54.6376 15.2402 53.8251 15.2402Z" fill="white"/>
<path d="M26.9251 35.952V34.7645H29.1126V29.627H21.7876V34.7645H25.7376L26.9251 35.952ZM26.9251 31.302H28.3376V32.7145H26.9251V31.302ZM23.9751 32.7145H22.5626V31.302H23.9751V32.7145ZM24.7501 31.302H26.1626V32.7145H24.7501V31.302Z" fill="white"/>
<path d="M32.0001 45.0891C32.6007 45.0891 33.0876 44.6022 33.0876 44.0016C33.0876 43.401 32.6007 42.9141 32.0001 42.9141C31.3995 42.9141 30.9126 43.401 30.9126 44.0016C30.9126 44.6022 31.3995 45.0891 32.0001 45.0891Z" fill="#17171D"/>
<path d="M53.8251 13.8266H45.8001V9.47656H32.7001H18.2001V13.8391H10.1751C8.5876 13.8391 7.2876 15.1391 7.2876 16.7266V45.1016C7.2876 46.6891 8.5876 47.9891 10.1751 47.9891H29.1126V50.9516H22.5626V54.5391H41.4376V50.9516H34.8876V47.9891H53.8251C55.4126 47.9891 56.7126 46.6891 56.7126 45.1016V16.7266C56.7126 15.1266 55.4126 13.8266 53.8251 13.8266ZM32.7001 10.8766H44.3876V24.7516H32.7001V10.8766ZM32.7001 26.1641H44.3876V40.0266H41.4251V33.1016C41.4251 32.9891 41.4001 32.8891 41.3501 32.7891L39.2501 28.5641V27.6391H37.8376V28.5641L35.7251 32.7766C35.6751 32.8766 35.6501 32.9766 35.6501 33.0891V40.0141H32.6876V26.1641H32.7001ZM37.8376 35.2766V40.0266H37.0626V33.8016H40.0251V40.0266H39.2501V35.2766H37.8376ZM37.5001 32.3891L38.5376 30.3016L39.5751 32.3891H37.5001ZM19.6126 10.8766H31.3001V24.7516H19.6126V10.8766ZM19.6126 26.1641H31.3001V40.0266H19.6126V26.1641ZM8.7001 16.7141C8.7001 15.9016 9.3626 15.2391 10.1751 15.2391H18.2001V26.1516V40.0141H8.7001V16.7141ZM40.0251 52.3516V53.1266H23.9751V52.3516H40.0251ZM30.5251 50.9391V47.9766H33.4876V50.9391H30.5251ZM55.3001 45.0891C55.3001 45.9016 54.6376 46.5641 53.8251 46.5641H10.1751C9.3626 46.5641 8.7001 45.9016 8.7001 45.0891V41.4266H18.2001H45.8001H55.3001V45.0891ZM55.3001 40.0266H45.8001V15.2391H53.8251C54.6376 15.2391 55.3001 15.9016 55.3001 16.7141V40.0266Z" fill="#17171D"/>
<path d="M21.425 22.9395L30.1625 17.8145L21.425 12.6895V22.9395ZM22.8375 15.152L27.3875 17.8145L22.8375 20.477V15.152Z" fill="#17171D"/>
<path d="M34.0627 14.9262V20.7137H36.8127L43.0377 23.4137V11.9512L36.8002 14.9262H34.0627ZM36.2502 19.3012H35.4752V16.3387H36.2502V19.3012ZM37.6627 16.0762L41.6252 14.1887V21.2762L37.6627 19.5512V16.0762Z" fill="#17171D"/>
<path d="M20.3877 36.1766H25.1627L28.3377 39.3516V36.1766H30.5252V28.2266H20.3877V36.1766ZM21.7877 29.6266H29.1127V34.7641H26.9252V35.9516L25.7377 34.7641H21.7877V29.6266Z" fill="#17171D"/>
<path d="M23.9752 31.3027H22.5627V32.7152H23.9752V31.3027Z" fill="#17171D"/>
<path d="M26.1627 31.3027H24.7502V32.7152H26.1627V31.3027Z" fill="#17171D"/>
<path d="M28.3375 31.3027H26.925V32.7152H28.3375V31.3027Z" fill="#17171D"/>
</svg>
