<svg width="64" height="64" viewBox="0 0 64 64" fill="none" xmlns="http://www.w3.org/2000/svg">
<path d="M56.9428 50.4818H7.72534C4.06784 50.4818 1.10034 47.5168 1.10034 43.8568V14.2818C1.10034 10.649 4.04559 7.6543 7.72534 7.6543C11.3853 7.6543 14.3528 10.6218 14.3528 14.2818V20.9068H21.1003V31.3718L34.5178 39.4293L47.9328 31.3718V20.9068H55.6778V22.1568L55.6753 47.312L56.9428 50.4818Z" fill="#EDC21D"/>
<path d="M10.7253 37.9485V50.481H7.72534C4.06784 50.481 1.10034 47.516 1.10034 43.856C1.10034 40.196 4.06784 37.2285 7.72534 37.2285C8.80534 37.2285 9.82534 37.486 10.7253 37.9485Z" fill="#CF941C"/>
<path d="M11.3431 35.8885C11.1311 35.7915 10.9136 35.7028 10.6963 35.6243C10.3718 35.5068 10.2036 35.1488 10.3211 34.824C10.4383 34.4995 10.7966 34.332 11.1213 34.4485C11.3703 34.5385 11.6198 34.6405 11.8626 34.7512C12.1766 34.8948 12.3148 35.2655 12.1713 35.5795C12.0286 35.8918 11.6596 36.0325 11.3431 35.8885ZM3.22534 35.3197V14.2827C3.22534 11.8005 5.24459 9.78125 7.72634 9.78125C8.07159 9.78125 8.35134 10.061 8.35134 10.4062C8.35134 10.7515 8.07159 11.0312 7.72634 11.0312C5.93359 11.0312 4.47534 12.4897 4.47534 14.2827V34.3975C5.80009 33.9395 7.18259 33.7803 8.52184 33.887C8.86584 33.9142 9.12284 34.2153 9.09534 34.5595C9.06809 34.9035 8.76634 35.1585 8.42284 35.133C6.95684 35.0165 5.48159 35.2625 4.10959 35.8883C3.69734 36.077 3.22534 35.7745 3.22534 35.3197Z" fill="#F8E5B0"/>
<path d="M47.9328 16.808V31.373L34.5178 39.4305L21.1003 31.373V16.808L34.5178 8.74805L47.9328 16.808Z" fill="#72C2E9"/>
<path d="M34.1958 37.3414L23.0286 30.6354C22.8406 30.5224 22.7253 30.3189 22.7253 30.0994V20.8379C22.7253 20.4926 23.0051 20.2129 23.3503 20.2129C23.6956 20.2129 23.9753 20.4926 23.9753 20.8379V29.7456L34.5176 36.0764L42.3606 31.3654C42.6566 31.1884 43.0406 31.2836 43.2181 31.5794C43.3958 31.8754 43.3001 32.2594 43.0041 32.4371L34.8393 37.3411C34.6411 37.4604 34.3943 37.4604 34.1958 37.3414ZM44.2898 30.9361C44.1121 30.6401 44.2078 30.2561 44.5038 30.0784L45.3611 29.5634C45.6571 29.3861 46.0411 29.4816 46.2186 29.7774C46.3963 30.0734 46.3006 30.4574 46.0046 30.6351L45.1473 31.1501C44.8508 31.3276 44.4671 31.2319 44.2898 30.9361Z" fill="#C5E5FE"/>
<path d="M62.9003 22.1563H55.6778V20.9063L55.6753 18.9938C55.6753 17.7488 56.6853 16.7363 57.9353 16.7363L60.6428 16.7388C61.8878 16.7363 62.9003 17.7488 62.8978 18.9938L62.9003 22.1563Z" fill="#FC5D3D"/>
<path d="M62.9003 22.1582L62.8978 47.3137L55.6753 47.3135L55.6778 22.1582H62.9003Z" fill="#72C2E9"/>
<path d="M62.8978 47.3128L61.4528 50.9235L59.2878 56.341L57.1203 50.926V50.9235L56.9428 50.4835L55.6753 47.3125L62.8978 47.3128Z" fill="#EDC21D"/>
<path d="M61.4526 50.9238L59.2876 56.3413L57.1201 50.9263L61.4526 50.9238Z" fill="#7A7380"/>
<path d="M52.6838 47.9392H18.3808C18.0355 47.9392 17.7558 47.6594 17.7558 47.3142C17.7558 46.9689 18.0355 46.6892 18.3808 46.6892H52.0588V24.8672C52.0588 24.5219 52.3385 24.2422 52.6838 24.2422C53.029 24.2422 53.3088 24.5219 53.3088 24.8672V47.3142C53.3088 47.6592 53.029 47.9392 52.6838 47.9392ZM15.8808 47.9392H14.353C14.0078 47.9392 13.728 47.6594 13.728 47.3142C13.728 46.9689 14.0078 46.6892 14.353 46.6892H15.8808C16.226 46.6892 16.5058 46.9689 16.5058 47.3142C16.5058 47.6594 16.226 47.9392 15.8808 47.9392Z" fill="#F8E5B0"/>
<path d="M40.6103 11.6778C40.3041 11.4978 39.9276 11.5973 39.7528 11.8928C39.5806 12.1728 39.6538 12.5591 39.9653 12.7503C40.2561 12.9221 40.6446 12.8366 40.8228 12.5353C41.0106 12.2206 40.8856 11.8418 40.6103 11.6778Z" fill="black"/>
<path d="M59.2878 34.5312C58.9428 34.5312 58.6628 34.8113 58.6628 35.1562C58.6628 35.4987 58.9428 35.7787 59.2878 35.7787C59.6328 35.7787 59.9128 35.4987 59.9128 35.1562C59.9128 34.8113 59.6328 34.5312 59.2878 34.5312Z" fill="black"/>
<path d="M63.5226 18.9963C63.5243 17.4065 62.2381 16.115 60.6453 16.115C60.6443 16.115 60.6431 16.115 60.6418 16.115L57.9341 16.1135C56.3528 16.1135 55.0498 17.3908 55.0516 18.9963L55.0521 20.2825H48.5578C48.5578 20.2783 48.5578 16.8383 48.5578 16.8383C48.5578 16.579 48.4441 16.3878 48.2553 16.2735L42.7528 12.9663C42.4653 12.7938 42.0653 12.8963 41.8953 13.181C41.7161 13.4735 41.8096 13.8553 42.1078 14.0388L46.7196 16.8078L34.5171 24.139L22.3133 16.808L34.5178 9.47625L37.8228 11.4635C38.1078 11.6338 38.5103 11.5335 38.6803 11.2488C38.8578 10.9535 38.7603 10.5688 38.4653 10.391L34.8378 8.211C34.6428 8.096 34.3903 8.096 34.1953 8.211L20.7778 16.2738C20.5871 16.3858 20.4753 16.604 20.4753 16.809V20.2828H14.9778V14.2838C14.9778 10.2818 11.7431 7.03125 7.72534 7.03125C3.70309 7.03125 0.475342 10.296 0.475342 14.2838V43.8588C0.475342 47.8428 3.69634 51.1063 7.72534 51.1063H19.4428C19.7878 51.1063 20.0678 50.8263 20.0678 50.4813C20.0678 50.1388 19.7903 49.8615 19.4478 49.8588C19.4453 49.8588 19.4453 49.8588 19.4428 49.8588H7.72534C4.42284 49.8515 1.73034 47.1613 1.72534 43.8588C1.73034 40.5538 4.42284 37.8615 7.72534 37.8538C11.0253 37.862 13.7278 40.5155 13.7278 43.8588C13.7278 44.2025 14.0108 44.4838 14.3528 44.4838C14.6943 44.4838 14.9778 44.203 14.9778 43.8588V21.5325H20.4753V31.3713C20.4753 31.5885 20.5903 31.7935 20.7778 31.9063L34.1953 39.9663C34.4096 40.0913 34.6616 40.0875 34.8678 39.9483L48.2553 31.9063C48.4428 31.7938 48.5578 31.5885 48.5578 31.3713V21.5325H55.0528L55.0516 47.3125C55.0516 47.3675 55.0676 47.4715 55.0978 47.5458L56.0223 49.8585H24.4428C24.0978 49.8585 23.8178 50.1385 23.8178 50.481C23.8178 50.826 24.0978 51.106 24.4428 51.106H56.5211L58.7068 56.5733C58.9158 57.0958 59.6583 57.0958 59.8676 56.5733L63.4768 47.5458C63.5073 47.4708 63.5228 47.3708 63.5228 47.3123L63.5226 18.9963ZM13.7278 39.786C12.4041 37.8435 10.1883 36.606 7.72784 36.606H7.72534C5.31784 36.606 3.08034 37.7935 1.72534 39.786V14.2838C1.72534 10.9303 4.47609 8.27875 7.72534 8.27875C11.0303 8.286 13.7228 10.9788 13.7278 14.2838V39.786ZM21.7253 17.9128L33.8921 25.2218V38.3253L21.7253 31.016V17.9128ZM47.3078 31.016L35.1418 38.326V25.2215L47.3078 17.9123V31.016ZM61.0298 50.2995H57.5441L56.6006 47.9393H61.9736L61.0298 50.2995ZM59.9128 46.6893V37.6563C59.9128 37.3113 59.6328 37.0313 59.2878 37.0313C58.9428 37.0313 58.6628 37.3113 58.6628 37.6563V46.6893H56.3016L56.3031 22.7818H58.6628V32.6565C58.6628 32.999 58.9428 33.279 59.2878 33.279C59.6328 33.279 59.9128 32.999 59.9128 32.6565V22.7815H62.2741L62.2726 46.6893H59.9128ZM57.9338 17.3635L60.6423 17.365C60.6428 17.365 60.6436 17.365 60.6443 17.365C61.5346 17.365 62.2738 18.0848 62.2728 18.9953C62.2728 18.9955 62.2728 18.996 62.2728 18.9963L62.2741 21.5315H56.3018V18.9953C56.3006 18.0943 57.0303 17.3635 57.9338 17.3635ZM59.2871 54.659L58.0441 51.5495H60.5303L59.2871 54.659Z" fill="black"/>
<path d="M21.1003 41.8984C20.7553 41.8984 20.4753 42.1784 20.4753 42.5234V44.6084C20.4753 44.9509 20.7553 45.2334 21.1003 45.2334C21.4453 45.2334 21.7253 44.9509 21.7253 44.6084V44.1909H33.8928V44.6084C33.8928 44.9509 34.1728 45.2334 34.5178 45.2334C34.8603 45.2334 35.1428 44.9509 35.1428 44.6084V44.1909H47.3078V44.6084C47.3078 44.9509 47.5878 45.2334 47.9328 45.2334C48.2778 45.2334 48.5578 44.9509 48.5578 44.6084V42.5234C48.5578 42.1784 48.2778 41.8984 47.9328 41.8984C47.5878 41.8984 47.3078 42.1784 47.3078 42.5234V42.9409H35.1428V42.5234C35.1428 42.1784 34.8603 41.8984 34.5178 41.8984C34.1728 41.8984 33.8928 42.1784 33.8928 42.5234V42.9409H21.7253V42.5234C21.7253 42.1784 21.4453 41.8984 21.1003 41.8984Z" fill="black"/>
<path d="M21.3179 50.4819C21.3179 50.8269 21.5979 51.1069 21.9429 51.1069C22.2879 51.1069 22.5679 50.8269 22.5679 50.4819C22.5679 50.1394 22.2879 49.8594 21.9429 49.8594C21.5979 49.8591 21.3179 50.1394 21.3179 50.4819Z" fill="black"/>
</svg>
