<svg width="64" height="64" viewBox="0 0 64 64" fill="none" xmlns="http://www.w3.org/2000/svg">
<g clip-path="url(#clip0_4019_135)">
<path d="M4.16002 18.1922C4.05762 18.1922 3.95522 18.1666 3.86562 18.1154C3.55842 17.949 3.43042 17.565 3.59682 17.2578C6.59202 11.5106 11.1872 6.85136 16.9088 3.77936C17.216 3.61296 17.6128 3.72816 17.7792 4.03536C17.9456 4.34256 17.8304 4.73936 17.5232 4.90576C12.0192 7.84976 7.60322 12.3298 4.73602 17.8466C4.62082 18.0642 4.39042 18.1922 4.16002 18.1922Z" fill="#1C1D21"/>
<path d="M32 64C23.4496 64 15.4112 60.672 9.3696 54.6304C3.328 48.5888 0 40.5504 0 32C0 29.3888 0.32 26.7904 0.9344 24.2816C1.024 23.936 1.3696 23.7312 1.7152 23.808C2.0608 23.8976 2.2656 24.2432 2.1888 24.5888C1.5872 26.9952 1.2928 29.4912 1.2928 32C1.2928 48.9344 15.0784 62.72 32.0128 62.72C48.9472 62.72 62.7328 48.9344 62.7328 32C62.7328 15.8336 50.112 2.368 33.9968 1.344C33.344 1.3056 32.6784 1.28 32.0128 1.28C31.6544 1.28 31.3728 0.9984 31.3728 0.64C31.3728 0.2816 31.6544 0 32.0128 0C32.704 0 33.3952 0.0256 34.0736 0.064C42.176 0.576 49.728 4.1344 55.3088 10.0608C60.9152 16.0128 64.0128 23.808 64.0128 32C64.0128 40.5504 60.6848 48.5888 54.6432 54.6304C48.5888 60.672 40.5504 64 32 64Z" fill="#1C1D21"/>
<path d="M25.5358 1.9499C25.2414 1.9499 24.9726 1.7451 24.9086 1.4379C24.8318 1.0923 25.0622 0.746703 25.4078 0.682703C26.4446 0.465103 27.507 0.298703 28.5566 0.183503C28.9022 0.145103 29.2222 0.401103 29.2606 0.746703C29.299 1.0923 29.043 1.4123 28.6974 1.4507C27.6862 1.5531 26.6622 1.7195 25.6638 1.9243C25.6126 1.9499 25.5742 1.9499 25.5358 1.9499Z" fill="#1C1D21"/>
<path d="M52.1085 47.8221C55.2957 43.7773 57.2925 38.7468 57.5613 33.2812H46.2077C46.1309 36.5452 45.7853 39.7068 45.1965 42.6636C47.7309 44.0076 50.0733 45.7357 52.1085 47.8221Z" fill="#83E1E5"/>
<path d="M43.2641 54.9858C43.4049 54.909 43.5585 54.845 43.6993 54.7682C43.8273 54.7042 43.9553 54.6274 44.0833 54.5634C44.1217 54.5378 44.1729 54.5122 44.2113 54.4994C46.5153 53.245 48.6145 51.6322 50.4193 49.7634C48.6913 47.9714 46.7201 46.461 44.5953 45.2578C43.9937 47.549 43.2257 49.6738 42.3041 51.5682C41.3313 53.5906 40.2177 55.293 39.0017 56.6242C40.4353 56.2146 41.8177 55.6898 43.1617 55.037C43.2001 55.0114 43.2257 54.9986 43.2641 54.9858Z" fill="#83E1E5"/>
<path d="M33.2803 57.4322C37.1075 56.4722 40.4355 51.2498 42.2403 44.069C39.4243 42.8402 36.3907 42.1106 33.2803 41.957V57.4322Z" fill="#83E1E5"/>
<path d="M33.2803 6.5625V22.0377C36.3907 21.8841 39.4243 21.1545 42.2403 19.9257C40.4355 12.7321 37.1075 7.5225 33.2803 6.5625Z" fill="#83E1E5"/>
<path d="M52.1088 16.1758C50.0736 18.2622 47.7312 19.9902 45.1968 21.3342C45.7984 24.291 46.144 27.4526 46.208 30.7166H57.5616C57.2928 25.251 55.296 20.2206 52.1088 16.1758Z" fill="#83E1E5"/>
<path d="M33.28 39.3996C36.5824 39.5532 39.7952 40.2828 42.8032 41.5244C43.2896 38.9388 43.5968 36.1613 43.6608 33.2812H33.28V39.3996Z" fill="#83E1E5"/>
<path d="M44.5952 18.752C46.72 17.5488 48.6912 16.0384 50.4192 14.2464C48.6144 12.3648 46.5152 10.7648 44.2112 9.51044C44.1728 9.48484 44.1216 9.45924 44.0832 9.44644C43.9552 9.38244 43.8272 9.30564 43.6992 9.24164C43.5584 9.16484 43.4048 9.08804 43.2512 9.02404C43.2256 9.01124 43.2 8.99844 43.1744 8.98564C41.8432 8.33284 40.448 7.80804 39.0144 7.39844C40.2304 8.72964 41.3312 10.432 42.3168 12.4544C43.2256 14.336 43.9936 16.4608 44.5952 18.752Z" fill="#83E1E5"/>
<path d="M30.7203 57.4322V41.957C27.6099 42.1106 24.5763 42.8402 21.7603 44.069C23.5651 51.2626 26.8931 56.4722 30.7203 57.4322Z" fill="#83E1E5"/>
<path d="M30.7199 24.6014C27.4175 24.4478 24.2047 23.7182 21.1967 22.4766C20.7103 25.0622 20.4031 27.8398 20.3391 30.7198H30.7199V24.6014Z" fill="#83E1E5"/>
<path d="M33.2803 24.6014C36.5827 24.4478 39.7955 23.7182 42.8035 22.4766C43.2899 25.0622 43.5971 27.8398 43.6611 30.7198H33.2803V24.6014Z" fill="#83E1E5"/>
<path d="M11.8913 16.1758C8.70408 20.2206 6.70728 25.251 6.43848 30.7166H17.7921C17.8689 27.4526 18.2145 24.291 18.8033 21.3342C16.2689 19.9902 13.9265 18.2622 11.8913 16.1758Z" fill="#83E1E5"/>
<path d="M30.7198 6.5625C26.8926 7.5225 23.5646 12.7449 21.7598 19.9257C24.5758 21.1545 27.6094 21.8841 30.7198 22.0377V6.5625Z" fill="#83E1E5"/>
<path d="M30.7199 33.2812H20.3391C20.4031 36.1741 20.7103 38.9516 21.1967 41.5244C24.1919 40.2828 27.4175 39.5532 30.7199 39.3996V33.2812Z" fill="#83E1E5"/>
<path d="M19.7892 54.4888C19.8276 54.5144 19.8788 54.54 19.9172 54.5528C20.0452 54.6168 20.1732 54.6936 20.3012 54.7576C20.442 54.8344 20.5956 54.9112 20.7492 54.9752C20.7748 54.988 20.8004 55.0008 20.826 55.0136C22.1572 55.6664 23.5524 56.1912 24.986 56.6008C23.77 55.2696 22.6692 53.5672 21.6836 51.5448C20.762 49.6376 20.0068 47.5128 19.3924 45.2344C17.2676 46.4376 15.2964 47.948 13.5684 49.74C15.386 51.6344 17.4852 53.2344 19.7892 54.4888Z" fill="#83E1E5"/>
<path d="M21.6835 12.4427C22.6563 10.4203 23.7699 8.71792 24.9859 7.38672C23.5523 7.79632 22.1699 8.32112 20.8259 8.97392C20.8003 8.98672 20.7619 8.99952 20.7363 9.01232C20.5955 9.08912 20.4419 9.15312 20.3011 9.22992C20.1731 9.29392 20.0451 9.37072 19.9171 9.43472C19.8787 9.46032 19.8275 9.48592 19.7891 9.49872C17.4851 10.7531 15.3859 12.3659 13.5811 14.2347C15.3091 16.0267 17.2803 17.5371 19.4051 18.7403C20.0067 16.4619 20.7747 14.3371 21.6835 12.4427Z" fill="#83E1E5"/>
<path d="M11.8913 47.8221C13.9265 45.7357 16.2689 44.0076 18.8033 42.6636C18.2017 39.7068 17.8561 36.5452 17.7921 33.2812H6.43848C6.70728 38.7468 8.70408 43.7773 11.8913 47.8221Z" fill="#83E1E5"/>
<path d="M51.0334 52.8165H48.6654C47.6798 52.8165 46.7838 52.202 46.4766 51.2676C46.259 50.6148 45.9902 49.9748 45.683 49.3476C45.2478 48.4644 45.4398 47.402 46.1438 46.698L47.8078 45.034C48.7166 44.1252 48.7166 42.6532 47.8078 41.7444L46.3998 40.3364C45.491 39.4276 44.019 39.4276 43.1102 40.3364L41.4462 42.0004C40.755 42.6916 39.6798 42.8965 38.7966 42.4613C38.1694 42.1541 37.5294 41.8852 36.8766 41.6676C35.9422 41.3476 35.3278 40.4644 35.3278 39.4788V37.1108C35.3278 35.8308 34.291 34.7812 32.9982 34.7812H31.0014C29.7214 34.7812 28.6718 35.818 28.6718 37.1108V39.4788C28.6718 40.4644 28.0574 41.3604 27.123 41.6676C26.4702 41.8852 25.8302 42.1541 25.203 42.4613C24.3198 42.8965 23.2574 42.7044 22.5534 42.0004L20.8894 40.3364C19.9806 39.4276 18.5086 39.4276 17.5998 40.3364L16.1918 41.7444C15.283 42.6532 15.283 44.1252 16.1918 45.034L17.8558 46.698C18.547 47.3892 18.7518 48.4644 18.3166 49.3476C18.0094 49.9748 17.7406 50.6148 17.523 51.2676C17.203 52.202 16.3198 52.8165 15.3342 52.8165H12.9662C11.7374 52.8165 10.7262 53.7636 10.6494 54.9796C16.243 60.1764 23.7566 63.3636 31.9998 63.3636C40.243 63.3636 47.7566 60.1764 53.3502 54.9668C53.2606 53.7636 52.2622 52.8165 51.0334 52.8165Z" fill="#AAB1BA"/>
<path d="M32.0003 64.0002C23.8851 64.0002 16.1539 60.9538 10.2147 55.437C10.0739 55.309 9.99713 55.117 10.0099 54.925C10.1251 53.3762 11.4179 52.173 12.9667 52.173H15.3347C16.0643 52.173 16.6915 51.725 16.9219 51.0594C17.1523 50.381 17.4339 49.7026 17.7539 49.0626C18.0611 48.4354 17.9331 47.6674 17.4211 47.1554L15.7571 45.4914C14.6051 44.3394 14.6051 42.4578 15.7571 41.293L17.1651 39.885C17.7283 39.3218 18.4707 39.0146 19.2643 39.0146C20.0579 39.0146 20.8003 39.3218 21.3635 39.885L23.0275 41.549C23.5395 42.061 24.3075 42.2018 24.9347 41.8818C25.5747 41.5618 26.2531 41.2802 26.9315 41.0498C27.5971 40.8194 28.0451 40.1922 28.0451 39.4626V37.0946C28.0451 35.4562 29.3763 34.125 31.0147 34.125H33.0115C34.6499 34.125 35.9811 35.4562 35.9811 37.0946V39.4626C35.9811 40.1922 36.4291 40.8194 37.0947 41.0498C37.7731 41.2802 38.4515 41.5618 39.0915 41.8818C39.7187 42.189 40.4867 42.061 40.9987 41.549L42.6627 39.885C43.2259 39.3218 43.9683 39.0146 44.7619 39.0146C45.5555 39.0146 46.2979 39.3218 46.8611 39.885L48.2691 41.293C48.8323 41.8562 49.1395 42.5986 49.1395 43.3922C49.1395 44.1858 48.8323 44.9282 48.2691 45.4914L46.6051 47.1554C46.0931 47.6674 45.9523 48.4354 46.2723 49.0626C46.5923 49.7026 46.8739 50.381 47.1043 51.0594C47.3347 51.725 47.9619 52.173 48.6915 52.173H51.0595C52.6083 52.173 53.9139 53.3762 54.0163 54.925C54.0291 55.117 53.9523 55.309 53.8115 55.437C47.8467 60.9538 40.1155 64.0002 32.0003 64.0002ZM11.3283 54.733C16.9987 59.8786 24.3203 62.7202 32.0003 62.7202C39.6803 62.7202 47.0019 59.8786 52.6723 54.733C52.4931 54.0034 51.8147 53.453 51.0339 53.453H48.6659C47.3859 53.453 46.2595 52.6594 45.8627 51.469C45.6579 50.8418 45.4019 50.2274 45.1075 49.6386C44.5571 48.5122 44.7875 47.1554 45.6835 46.2594L47.3475 44.5954C47.6675 44.2754 47.8467 43.853 47.8467 43.405C47.8467 42.957 47.6675 42.5346 47.3475 42.2146L45.9395 40.8066C45.6195 40.4866 45.1971 40.3074 44.7491 40.3074C44.3011 40.3074 43.8787 40.4866 43.5587 40.8066L41.8947 42.4706C40.9987 43.3666 39.6291 43.6098 38.5155 43.0466C37.9267 42.7522 37.3123 42.4962 36.6851 42.2914C35.4947 41.8946 34.7011 40.7682 34.7011 39.4882V37.1202C34.7011 36.1858 33.9459 35.4306 33.0115 35.4306H31.0147C30.0803 35.4306 29.3251 36.1858 29.3251 37.1202V39.4882C29.3251 40.7682 28.5315 41.8946 27.3411 42.2914C26.7139 42.4962 26.0995 42.7522 25.5107 43.0466C24.3843 43.597 23.0275 43.3666 22.1315 42.4706L20.4675 40.8066C20.1475 40.4866 19.7251 40.3074 19.2771 40.3074C18.8291 40.3074 18.4067 40.4866 18.0867 40.8066L16.6787 42.2146C16.0259 42.8674 16.0259 43.9426 16.6787 44.5954L18.3427 46.2594C19.2387 47.1554 19.4819 48.525 18.9187 49.6386C18.6243 50.2274 18.3683 50.8418 18.1635 51.469C17.7667 52.6594 16.6403 53.453 15.3603 53.453H12.9923C12.1859 53.453 11.5203 53.9906 11.3283 54.733Z" fill="#1C1D21"/>
<path d="M32.0001 63.359C34.5601 63.359 37.0305 63.0518 39.4113 62.4758C41.3057 59.199 40.8449 54.9494 38.0545 52.1462C34.7137 48.8054 29.2993 48.8054 25.9457 52.1462C23.1425 54.9494 22.6945 59.199 24.5889 62.4758C26.9697 63.0518 29.4401 63.359 32.0001 63.359Z" fill="#FDDF7F"/>
<path d="M31.9999 64.0044C29.4399 64.0044 26.9055 63.6972 24.4351 63.1084C24.2687 63.07 24.1151 62.9548 24.0255 62.8012C21.9519 59.2044 22.5535 54.6348 25.4847 51.7036C27.2255 49.9628 29.5295 49.0156 31.9871 49.0156C34.4447 49.0156 36.7487 49.9756 38.4895 51.7036C41.4335 54.6476 42.0351 59.2044 39.9487 62.8012C39.8591 62.9548 39.7183 63.0572 39.5391 63.1084C37.0943 63.6972 34.5599 64.0044 31.9999 64.0044ZM25.0111 61.918C29.5679 62.9804 34.4319 62.9804 38.9887 61.918C40.6143 58.8588 40.0639 55.07 37.5935 52.5996C36.0959 51.102 34.1119 50.2828 31.9999 50.2828C29.8879 50.2828 27.8911 51.102 26.4063 52.5996C23.9359 55.07 23.3855 58.8716 25.0111 61.918Z" fill="#1C1D21"/>
</g>
<defs>
<clipPath id="clip0_4019_135">
<rect width="64" height="64" fill="white"/>
</clipPath>
</defs>
</svg>
