<svg width="64" height="64" viewBox="0 0 64 64" fill="none" xmlns="http://www.w3.org/2000/svg">
<path d="M53.1029 34.293L46.9209 42.3273H49.2164V59.5437H57.2507V42.3273H59.5462L53.1029 34.293Z" fill="#7FD3B9"/>
<path d="M53.1031 34.2891L46.9211 42.3234H49.2166L54.2743 35.7495L53.1031 34.2891Z" fill="#BBEAD9"/>
<path d="M51.5123 42.3242H49.2168V59.5406H51.5123V42.3242Z" fill="#BBEAD9"/>
<path d="M10.6366 22.8164L4.45459 30.8508H6.75006V43.476H14.7844V30.8508H17.0799L10.6366 22.8164Z" fill="#7FD3B9"/>
<path d="M10.6371 22.8164L4.45508 30.8508H6.75054L11.8083 24.2769L10.6371 22.8164Z" fill="#BBEAD9"/>
<path d="M9.04547 30.8516H6.75V43.4768H9.04547V30.8516Z" fill="#BBEAD9"/>
<path d="M32.4437 4.45312L26.2617 12.4875H28.5572V17.9512C29.7834 17.3958 31.1409 17.0786 32.5743 17.0786C34.0079 17.0786 35.3651 17.3958 36.5913 17.9512V12.4875H38.8868L32.4437 4.45312Z" fill="#7FD3B9"/>
<path d="M32.4437 4.45312L26.2617 12.4875H28.5572L33.6149 5.91382L32.4437 4.45312Z" fill="#BBEAD9"/>
<path d="M30.8526 17.2469V12.4883H28.5571V17.952C29.2788 17.6251 30.0507 17.3926 30.8526 17.2469Z" fill="#BBEAD9"/>
<path d="M39.4726 33.7305C43.2825 29.9206 43.2825 23.7435 39.4726 19.9336C35.6627 16.1237 29.4857 16.1237 25.6758 19.9336C21.8659 23.7435 21.8659 29.9206 25.6758 33.7305C29.4857 37.5404 35.6627 37.5404 39.4726 33.7305Z" fill="#FFDA88"/>
<path d="M25.1138 26.8341C25.1138 21.835 28.876 17.7205 33.722 17.1515C33.3449 17.1071 32.9632 17.0781 32.5743 17.0781C27.1864 17.0781 22.8184 21.4461 22.8184 26.8341C22.8184 32.222 27.1864 36.59 32.5743 36.59C32.9632 36.59 33.3449 36.5608 33.722 36.5166C28.876 35.9479 25.1138 31.8333 25.1138 26.8341Z" fill="#FFE2A9"/>
<path d="M40.0352 59.5464C40.0352 54.9555 36.6951 52.0859 32.5747 52.0859C28.4544 52.0859 25.1143 54.9553 25.1143 59.5464H40.0352Z" fill="#7FD3B9"/>
<path d="M32.5746 36.5882C31.989 36.5882 31.4173 36.5345 30.853 36.457V52.2646C31.4066 52.1492 31.9811 52.0831 32.5746 52.0831C33.1681 52.0831 33.7426 52.1492 34.2962 52.2646V36.457C33.732 36.5345 33.1604 36.5882 32.5746 36.5882Z" fill="#FFC67B"/>
<path d="M30.8527 44.1219C30.3302 43.3265 29.7329 42.5521 29.0986 41.9177C26.8569 39.6771 25.3958 39.6687 24.4992 40.5649C23.6023 41.4616 23.6109 42.9227 25.8519 45.1644C27.2608 46.5733 29.3557 47.8129 30.8527 48.406V44.1219Z" fill="#7FD3B9"/>
<path d="M41.3352 40.5649C40.4386 39.6687 38.9775 39.6772 36.7358 41.9176C35.8009 42.8529 34.9425 44.0898 34.2957 45.2544V48.6423C35.7685 48.2167 38.3396 46.8062 39.9823 45.1644C42.2235 42.9226 42.2321 41.4615 41.3352 40.5649Z" fill="#7FD3B9"/>
<path d="M33.7225 52.1711C33.3474 52.1194 32.9658 52.0859 32.5747 52.0859C28.4544 52.0859 25.1143 54.9553 25.1143 59.5464H27.4097C27.4099 55.3913 30.1487 52.6543 33.7225 52.1711Z" fill="#BBEAD9"/>
<path d="M32 36.5674C31.6135 36.5461 31.2301 36.5126 30.8523 36.4609V52.2685C31.2243 52.1911 31.6094 52.1465 32 52.1183V36.5674Z" fill="#FFD39F"/>
<path d="M57.2515 60.6923H49.2171C48.5833 60.6923 48.0694 60.1784 48.0694 59.5446V43.4761H46.9216C46.4845 43.4761 46.0849 43.2278 45.8921 42.8355C45.6988 42.4432 45.7453 41.9747 46.012 41.6282L52.194 33.5939C52.4086 33.3148 52.7399 33.1495 53.0919 33.1461C53.4112 33.126 53.7784 33.3008 53.9992 33.576L60.4425 41.6103C60.7183 41.9544 60.7725 42.4269 60.5814 42.8248C60.3909 43.2227 59.9885 43.4761 59.5469 43.4761H58.3992V59.5446C58.3992 60.1784 57.8853 60.6923 57.2515 60.6923ZM50.3648 58.3967H56.1037V42.3282C56.1037 41.7257 56.5677 41.2314 57.1584 41.1843L53.1222 36.1517L49.2523 41.1811C49.8699 41.1996 50.3648 41.7063 50.3648 42.3284V58.3967Z" fill="#161616"/>
<path d="M36.5923 19.0945C36.4314 19.0945 36.2701 19.0608 36.1187 18.9925C33.8612 17.9692 31.289 17.9692 29.0315 18.9925C28.6763 19.1534 28.2637 19.1237 27.9358 18.9112C27.6079 18.7 27.4102 18.3367 27.4102 17.9468V13.6308H26.2625C25.8253 13.6308 25.4258 13.3825 25.2329 12.9902C25.0396 12.5978 25.0861 12.1294 25.3528 11.7829L31.535 3.74857C31.7496 3.46953 32.0809 3.30419 32.4327 3.30078C32.7975 3.30697 33.1192 3.45609 33.34 3.73065L39.7833 11.765C40.0589 12.1091 40.1133 12.5814 39.9222 12.9795C39.7317 13.3774 39.3293 13.6308 38.8877 13.6308H37.74V17.9468C37.74 18.3367 37.5422 18.7 37.2143 18.9112C37.026 19.0328 36.8097 19.0945 36.5923 19.0945ZM32.575 15.9265C33.5512 15.9265 34.5112 16.0564 35.4443 16.3137V12.4831C35.4443 11.8806 35.9083 11.3863 36.499 11.3392L32.4628 6.30643L28.5931 11.3358C29.2107 11.3543 29.7057 11.861 29.7057 12.4831V16.3137C30.6388 16.0564 31.5988 15.9265 32.575 15.9265Z" fill="#161616"/>
<path d="M40.035 60.6895H25.1143C24.4805 60.6895 23.9666 60.1756 23.9666 59.5418C23.9666 54.5541 27.5868 50.9336 32.5748 50.9336C37.5625 50.9336 41.183 54.5539 41.183 59.5418C41.1828 60.1756 40.6688 60.6895 40.035 60.6895ZM26.3482 58.3939H38.8009C38.3218 55.3014 35.8957 53.2291 32.5746 53.2291C29.2536 53.2291 26.8274 55.3016 26.3482 58.3939Z" fill="#161616"/>
<path d="M34.2963 53.4122C34.2184 53.4122 34.1399 53.4044 34.062 53.3881C33.06 53.1797 32.0893 53.1797 31.0873 53.3881C30.7477 53.4587 30.3969 53.3736 30.129 53.155C29.8611 52.9369 29.7053 52.6097 29.7053 52.2645V36.4571C29.7053 36.1254 29.8489 35.8105 30.0987 35.5925C30.3481 35.3745 30.6781 35.2725 31.0088 35.3201C32.2092 35.4848 32.9401 35.4848 34.1405 35.3201C34.4701 35.2725 34.8012 35.3745 35.0506 35.5925C35.3006 35.8105 35.444 36.1254 35.444 36.4571V52.2645C35.444 52.6097 35.2883 52.9369 35.0203 53.155C34.8142 53.3231 34.5576 53.4122 34.2963 53.4122ZM32.5747 50.9352C32.7645 50.9352 32.9563 50.9414 33.1485 50.9531V37.7214C32.7573 37.7403 32.392 37.7403 32.0008 37.7214V50.9531C32.193 50.9414 32.3848 50.9352 32.5747 50.9352Z" fill="#161616"/>
<path d="M30.8531 49.5529C30.7102 49.5529 30.5668 49.5267 30.4305 49.4723C28.8704 48.8547 26.5988 47.5333 25.0408 45.9751C21.7455 42.6793 22.7789 40.6616 23.6879 39.7526C24.5962 38.843 26.6127 37.8096 29.9104 41.1049C30.5583 41.7535 31.1983 42.5558 31.8125 43.4913C31.9351 43.6784 32.0008 43.8971 32.0008 44.1213V48.4052C32.0008 48.7852 31.8125 49.141 31.4982 49.3545C31.3054 49.4855 31.0801 49.5529 30.8531 49.5529ZM25.8327 41.1677C25.635 41.1677 25.4566 41.23 25.3109 41.3761C24.6048 42.0816 25.8555 43.5433 26.6639 44.3519C27.5185 45.2061 28.6568 45.9911 29.7054 46.5774V44.4707C29.2403 43.7925 28.7537 43.1945 28.2875 42.7284C27.6458 42.0873 26.5933 41.1677 25.8327 41.1677Z" fill="#161616"/>
<path d="M34.2959 49.7882C34.05 49.7882 33.8072 49.7092 33.606 49.5578C33.318 49.3408 33.1482 49.0012 33.1482 48.6404V45.2527C33.1482 45.0577 33.1981 44.8659 33.2928 44.6957C34.0645 43.3058 34.9989 42.0303 35.9241 41.1044C39.2199 37.8114 41.2363 38.842 42.147 39.751C42.147 39.7517 42.147 39.7517 42.147 39.7517C43.056 40.6607 44.0894 42.6782 40.7941 45.9742C38.9812 47.7867 36.2569 49.2689 34.6142 49.7436C34.5095 49.7736 34.4026 49.7882 34.2959 49.7882ZM35.4439 45.5552V46.9423C36.6936 46.324 38.1513 45.3702 39.1712 44.3509C39.9793 43.5422 41.2297 42.0806 40.524 41.3745C39.8196 40.6684 38.3563 41.9191 37.5476 42.7279C36.8241 43.4515 36.0839 44.4478 35.4439 45.5552Z" fill="#161616"/>
<path d="M14.7847 44.6195H6.7503C6.11649 44.6195 5.60257 44.1056 5.60257 43.4718V40.0286C5.60257 39.3948 6.11649 38.8809 6.7503 38.8809C7.38412 38.8809 7.89804 39.3948 7.89804 40.0286V42.3241H13.6369V30.8465C13.6369 30.2441 14.1009 29.7498 14.6916 29.7026L10.6554 24.6701L6.7855 29.6994C7.4031 29.718 7.89804 30.2244 7.89804 30.8465V35.4375C7.89804 36.0713 7.38412 36.5852 6.7503 36.5852C6.11649 36.5852 5.60257 36.0713 5.60257 35.4375V31.9943H4.45484C4.01772 31.9943 3.61814 31.7459 3.42529 31.3536C3.23201 30.9613 3.27852 30.4928 3.54518 30.1464L9.72737 22.112C9.94198 21.833 10.2733 21.6676 10.6251 21.6642C10.9764 21.658 11.3116 21.8189 11.5324 22.0941L17.9757 30.1284C18.2513 30.4726 18.3057 30.9451 18.1148 31.343C17.9243 31.7408 17.5219 31.9943 17.0801 31.9943H15.9324V43.4718C15.9324 44.1056 15.4185 44.6195 14.7847 44.6195Z" fill="#161616"/>
<path d="M32.5743 37.7351C26.562 37.7351 21.6707 32.8438 21.6707 26.8314C21.6707 20.8193 26.562 15.9277 32.5743 15.9277C37.3935 15.9277 41.5821 19.0206 42.9972 23.6246C43.1832 24.2305 42.8431 24.8726 42.2373 25.0593C41.631 25.2414 40.9886 24.9052 40.8026 24.2994C39.6856 20.665 36.3791 18.2232 32.5743 18.2232C27.8275 18.2232 23.9661 22.0845 23.9661 26.8314C23.9661 31.5783 27.8275 35.4396 32.5743 35.4396C36.7467 35.4396 40.307 32.4587 41.0396 28.3514C41.1505 27.7276 41.7385 27.308 42.3712 27.4234C42.995 27.5343 43.4108 28.1306 43.2992 28.755C42.3712 33.9582 37.8609 37.7351 32.5743 37.7351Z" fill="#161616"/>
<g clip-path="url(#clip0_4060_199)">
<path d="M33.9932 22.4649H35.954L36.7051 21.3359H29.338L28.5869 22.4649H29.8652C31.1594 22.4649 32.3541 22.5645 32.8324 23.6476H29.3435L28.5929 24.7762H32.9733C32.9733 25.5886 32.3003 26.833 30.0743 26.833H28.9991V27.8883L33.3154 33.2826H35.2372L30.7712 27.7075C32.609 27.6079 34.3337 26.5801 34.5821 24.7782H35.954L36.7051 23.6496H34.5626C34.4818 23.211 34.2852 22.802 33.9932 22.4649Z" fill="#D14C2F"/>
</g>
<defs>
<clipPath id="clip0_4060_199">
<rect width="8.11816" height="11.9467" fill="white" transform="translate(28.5867 21.334)"/>
</clipPath>
</defs>
</svg>
