<svg width="64" height="64" viewBox="0 0 64 64" fill="none" xmlns="http://www.w3.org/2000/svg">
<path d="M32.0003 13C32.0003 15.21 30.2103 17 28.0003 17V22H23.0003C23.0003 19.79 21.2103 18 19.0003 18C16.7903 18 15.0003 19.79 15.0003 22H10.0103C10.0103 21.32 10.0403 20.63 10.1203 19.93C10.9703 12.27 18.2903 4.96 25.9403 4.11C26.6403 4.04 27.3203 4 28.0003 4V9C30.2103 9 32.0003 10.79 32.0003 13Z" fill="#FAB400"/>
<path d="M46 22C46 27.73 43.32 32.82 39.14 36.11C37.19 37.66 36 39.97 36 42.47V44H28V34C25.79 34 24 32.21 24 30C24 27.79 25.79 26 28 26V22H33C33 24.21 34.79 26 37 26C39.21 26 41 24.21 41 22H46Z" fill="#0A5078"/>
<path d="M41 22C41 24.21 39.21 26 37 26C36.655 26 36.32 25.956 36 25.874V29C36 30.105 36.895 31 38 31H41C41 31.93 41.33 32.775 41.862 33.454H41.866C44.449 30.347 46 26.359 46 22H41Z" fill="#00325A"/>
<path d="M24.0003 30C24.0003 32.21 25.7903 34 28.0003 34V44H20.0003V42.47C20.0003 39.97 18.8103 37.66 16.8503 36.11C12.6803 32.82 10.0103 27.73 10.0103 22H15.0003C15.0003 19.79 16.7903 18 19.0003 18C21.2103 18 23.0003 19.79 23.0003 22H28.0003V26C25.7903 26 24.0003 27.79 24.0003 30Z" fill="#C80A50"/>
<path d="M19.0003 17C16.7903 17 15.0003 18.79 15.0003 21H10.0343C10.0173 21.336 10.0103 21.669 10.0103 22H15.0003C15.0003 19.79 16.7903 18 19.0003 18C21.2103 18 23.0003 19.79 23.0003 22H28.0003V21H23.0003C23.0003 18.79 21.2103 17 19.0003 17Z" fill="#DC9600"/>
<path d="M24 30C24 27.79 25.79 26 28 26V22H27V26C24.79 26 23 27.79 23 30C23 32.21 24.79 34 27 34V44H28V34C25.79 34 24 32.21 24 30Z" fill="#A00028"/>
<path d="M55 31H50C50 33.21 48.21 35 46 35C43.79 35 42 33.21 42 31H39C37.895 31 37 30.105 37 29V26C39.21 26 41 24.21 41 22C41 19.79 39.21 18 37 18V13C46.94 13 55 21.06 55 31Z" fill="#00A0C8"/>
<path d="M45 28C43.895 28 43 28.895 43 30V33.646C43.733 34.476 44.805 35 46 35C46.345 35 46.68 34.956 47 34.874V30C47 28.895 46.105 28 45 28Z" fill="#0082AA"/>
<path d="M28 43H20V44H28V43Z" fill="#A00028"/>
<path d="M36 43H28V44H36V43Z" fill="#00325A"/>
<path d="M36 48H20C18.895 48 18 47.105 18 46C18 44.895 18.895 44 20 44H36C37.105 44 38 44.895 38 46C38 47.105 37.105 48 36 48Z" fill="#00A0C8"/>
<path d="M32 56H24C21.791 56 20 54.209 20 52V48H36V52C36 54.209 34.209 56 32 56Z" fill="#0A5078"/>
<path d="M28 60C25.791 60 24 58.209 24 56H32C32 58.209 30.209 60 28 60Z" fill="#C80A50"/>
<path d="M36 48H20V49H36V48Z" fill="#00325A"/>
<path d="M31.874 57C31.956 56.68 32 56.345 32 56H24C24 56.345 24.044 56.68 24.126 57H31.874Z" fill="#A00028"/>
<path d="M58 42C56.895 42 56 42.895 56 44V43C56 41.895 55.105 41 54 41C52.895 41 52 41.895 52 43V42C52 40.895 51.105 40 50 40C48.895 40 48 40.895 48 42V30C48 28.895 47.105 28 46 28C44.895 28 44 28.895 44 30V44H42C40.895 44 40 44.895 40 46V52C40 54.209 41.791 56 44 56V60H58V56C59.105 56 60 55.105 60 54V44C60 42.895 59.105 42 58 42Z" fill="#F0C8A0"/>
<path d="M49 42V44H48V42C48 40.895 48.895 40 50 40C50.173 40 50.34 40.022 50.5 40.063C49.637 40.285 49 41.068 49 42Z" fill="#D2AA82"/>
<path d="M53 43V44H52V43C52 41.895 52.895 41 54 41C54.173 41 54.34 41.022 54.5 41.063C53.637 41.285 53 42.068 53 43Z" fill="#D2AA82"/>
<path d="M57 44H56C56 42.895 56.895 42 58 42C58.173 42 58.34 42.022 58.5 42.063C57.637 42.285 57 43.068 57 44Z" fill="#D2AA82"/>
<path d="M41 46V52C41 53.864 42.275 55.43 44 55.874V56C41.791 56 40 54.209 40 52V46C40 44.895 40.895 44 42 44H43C41.895 44 41 44.895 41 46Z" fill="#D2AA82"/>
<path d="M45 30V52H44V30C44 28.895 44.895 28 46 28C46.173 28 46.34 28.022 46.5 28.063C45.637 28.285 45 29.068 45 30Z" fill="#D2AA82"/>
</svg>
