<svg width="64" height="64" viewBox="0 0 64 64" fill="none" xmlns="http://www.w3.org/2000/svg">
<g clip-path="url(#clip0_4060_184)">
<path d="M46.3102 6.07997C37.5908 0.312704 26.2909 -0.132564 16.9679 4.36251C7.81147 8.77278 1.48519 18.0598 0.236587 28.2373C0.0701058 29.6155 -0.0131344 31.0149 0.00767574 32.3931C-0.0131344 32.7748 0.00767511 33.1353 0.0492954 33.4957C0.486308 41.9982 4.41942 50.1614 10.9538 55.6531C18.9449 62.3533 29.9951 64.4312 39.8175 61.0387C49.3901 57.731 56.7985 49.5041 59.3165 39.5598C59.8784 37.3547 60.1698 35.086 60.2322 32.8172C60.2322 32.7112 60.2322 32.6052 60.2322 32.4992C60.2322 32.3295 60.2322 32.1599 60.2322 31.9903C60.1906 21.4947 54.9048 11.7836 46.3102 6.07997Z" fill="#00D3D5"/>
<path d="M60.2322 32.4782C60.2322 32.3086 60.2322 32.139 60.2322 31.9694C60.1698 21.495 54.9048 11.7839 46.3102 6.10146C37.5908 0.334188 26.2909 -0.111079 16.9679 4.384C7.81147 8.79426 1.48519 18.0813 0.236587 28.2588C0.0701058 29.637 -0.0131344 31.0364 0.00767574 32.4146C-0.0131344 32.7963 0.00767511 33.1567 0.0492954 33.5172C0.486308 42.0197 4.41942 50.1829 10.9538 55.6745C18.9449 62.3747 29.9951 64.4527 39.8175 61.0601C49.3901 57.7524 56.7985 49.5256 59.3165 39.5813C59.8784 37.3762 60.1698 35.1074 60.2322 32.8387C60.2322 32.6691 60.2322 32.5631 60.2322 32.4782ZM33.9906 55.4837C33.6993 55.9078 33.0334 56.5651 32.5131 57.0315C32.5755 56.9679 32.2426 57.2436 32.2218 57.2436C32.0761 57.3496 31.9096 57.4344 31.7431 57.5404C31.6183 57.6252 31.4726 57.6888 31.3269 57.7524C31.5766 57.6252 31.0148 57.8585 30.9315 57.8797C30.8275 57.9221 30.7234 57.9433 30.5986 57.9645C30.7234 57.9433 30.3697 57.9857 30.2864 57.9857C30.1199 57.9857 29.9534 57.9857 29.787 57.9857C29.7662 57.9857 29.7662 57.9857 29.7453 57.9857C29.7245 57.9857 29.6829 57.9645 29.6621 57.9645C28.8297 57.7949 28.7257 57.71 27.8932 57.1376C27.8516 57.1164 27.8308 57.0952 27.81 57.0739C27.7892 57.0527 27.7476 57.0103 27.6851 56.9679C27.5395 56.8407 27.3938 56.6923 27.2481 56.5439C26.936 56.247 26.6654 55.929 26.3741 55.5897C25.8747 54.996 25.2712 53.9783 24.8342 53.1514C23.648 50.9462 22.7948 48.5291 22.1913 46.0483C25.3752 46.4511 28.6008 46.5784 31.7639 46.4936C33.8449 46.4299 35.9468 46.3027 38.0278 46.0483C37.7156 47.2781 37.3619 48.4867 36.9457 49.6952C36.2173 51.7519 35.26 53.7238 33.9906 55.4837ZM32.1593 42.4437C28.5175 42.5922 24.9174 42.3801 21.3381 41.8289C21.1091 40.387 20.9635 38.9452 20.8386 37.5458C20.5889 34.747 20.5265 31.9058 20.6513 29.0645C24.4596 29.7642 28.3927 29.9975 32.2218 29.849C34.6773 29.743 37.1329 29.5098 39.5677 29.0645C39.6093 30.0187 39.6302 30.9728 39.6302 31.927C39.6302 35.2559 39.4012 38.5848 38.8602 41.8713C36.6335 42.1681 34.386 42.3589 32.1593 42.4437ZM27.6851 6.86477C27.7268 6.82237 27.7476 6.80116 27.7684 6.77996C27.7892 6.75876 27.8308 6.73755 27.8932 6.69515C28.0389 6.58913 28.2054 6.48312 28.3511 6.3771C28.4967 6.29229 28.6632 6.20748 28.8297 6.12266C28.8505 6.10146 28.8713 6.10146 28.8921 6.10146C28.9129 6.10146 28.9546 6.08026 29.017 6.05905C29.1627 6.01665 29.8286 5.86822 29.7662 5.86822C29.891 5.86822 30.0159 5.84702 30.1616 5.84702C30.2656 5.84702 30.9731 5.93183 30.4737 5.84702C31.3685 5.99544 31.3685 6.03785 32.0969 6.48312C32.638 6.82237 33.179 7.35245 33.7825 8.05215C36.6751 11.4235 37.9862 16.7879 38.7978 21.2405C39.0267 22.4915 39.1931 23.7425 39.3388 24.9935C36.8624 25.46 34.3444 25.6932 31.8472 25.7992C28.2054 25.9477 24.5844 25.6508 21.0051 24.9511C21.2548 22.7672 21.6086 20.6044 22.108 18.4841C23.0029 14.3495 24.5428 9.64239 27.6851 6.86477ZM43.6049 31.927C43.6049 30.676 43.5633 29.425 43.5008 28.174C45.1865 27.6863 46.8513 27.0926 48.4328 26.3717C50.722 25.3328 52.9278 23.7849 54.2181 21.7282C55.4459 24.7603 56.1326 28.0044 56.2366 31.3121C56.195 31.5665 56.195 31.8633 56.2366 32.139C56.2366 32.1602 56.2366 32.1602 56.2366 32.1814C56.2366 32.5631 56.2158 32.9235 56.195 33.284C55.6331 36.1676 51.4711 38.2243 49.2444 39.1572C47.2259 40.0054 45.1032 40.6415 42.9598 41.1291C43.4176 38.0547 43.6049 34.9802 43.6049 31.927ZM51.5544 16.7031C51.4919 16.9999 51.4919 17.3392 51.5336 17.6572C51.8873 20.2864 47.8293 22.2795 45.9981 23.064C45.0616 23.4457 44.1251 23.7849 43.1679 24.0818C42.7725 20.5408 42.0649 17.0211 40.9412 13.6498C40.1296 11.2114 39.0683 8.64584 37.5283 6.46191C40.2545 7.28884 42.8557 8.53983 45.2489 10.2361C47.7461 11.9959 49.8687 14.2011 51.5544 16.7031ZM20.9219 7.0132C21.5253 6.77996 22.1288 6.58913 22.7323 6.3983C20.4224 9.59999 19.1114 13.6922 18.2373 17.424C17.7171 19.6079 17.3425 21.813 17.072 24.0394C15.3031 23.5305 13.5967 22.8732 12.0151 21.9402C10.3711 20.9649 8.58145 19.5443 8.74793 17.424C8.76874 17.2119 8.72712 16.9999 8.66469 16.7879C11.6613 12.3988 15.9066 8.92148 20.9219 7.0132ZM5.93856 21.8554C7.95714 24.8663 12.0775 26.711 15.2199 27.7075C15.7193 27.8771 16.2188 28.0044 16.7182 28.1528C16.5725 31.0152 16.6142 33.8989 16.8014 36.7613C16.9055 38.1819 17.0304 39.6237 17.2385 41.0443C16.4477 40.8535 15.6569 40.6627 14.8661 40.4506C12.4313 39.7933 10.1006 38.924 7.93633 37.6094C5.91775 36.3796 3.79512 34.5562 4.02403 31.9482C4.04484 31.7573 4.02403 31.5665 3.9616 31.3757C3.98241 30.4003 4.04484 29.425 4.1697 28.4496C4.48185 26.1597 5.08535 23.9546 5.93856 21.8554ZM5.48074 40.8323C7.64499 42.2105 10.0798 43.1859 12.14 43.8432C14.0545 44.458 16.0107 44.9669 17.9876 45.3698C18.6119 48.2322 19.486 51.0522 20.6721 53.7238C21.234 54.9748 21.9207 56.2682 22.7531 57.4556C20.0062 56.6287 17.3633 55.3777 14.9702 53.6814C10.5376 50.5434 7.27041 45.9635 5.48074 40.8323ZM42.2939 55.5261C40.7123 56.3954 39.0475 57.0739 37.3619 57.5616C37.5075 57.3496 37.674 57.1376 37.8197 56.9255C39.9215 53.8299 41.1493 50.0345 42.0233 46.4087C42.1066 46.0695 42.1898 45.7302 42.2522 45.391C45.3529 44.7761 48.3912 43.8856 51.263 42.6346C52.4076 42.1257 53.6146 41.5108 54.7591 40.7687C52.5741 47.0024 48.2039 52.3032 42.2939 55.5261Z" fill="#EFEFEF"/>
<path d="M63.9994 18.5049C63.9578 14.3703 60.649 11.0414 56.5702 11.0626C53.2406 11.0838 50.4312 13.395 49.5572 16.4906C48.6416 13.395 45.7906 11.1474 42.4609 11.1898C38.403 11.2322 35.1358 14.6035 35.1566 18.7594C35.1774 21.0493 36.1971 23.0848 37.7995 24.463C37.8619 24.5478 37.9243 24.6114 37.9868 24.6963L46.4565 34.9374C48.3294 37.1849 51.3469 37.1637 53.1574 34.8738L61.4398 24.4842C61.6271 24.251 61.7936 23.9966 61.9184 23.7633C63.2295 22.4063 64.0202 20.5404 63.9994 18.5049Z" fill="#DB4646"/>
<path d="M42.1701 13.118C39.6105 13.6481 37.8208 15.726 37.4878 18.334C37.363 19.3518 38.9237 19.3306 39.0486 18.334C39.2775 16.4045 40.755 15.0263 42.5655 14.6447C43.5852 14.4538 43.1482 12.9272 42.1701 13.118Z" fill="#E7AD84"/>
</g>
<defs>
<clipPath id="clip0_4060_184">
<rect width="64" height="64" fill="white"/>
</clipPath>
</defs>
</svg>
